<svg xmlns="http://www.w3.org/2000/svg" id="Layer_1" height="512" viewBox="0 0 512 512" width="512"><g><path d="m368.467 482h-224.934c-8.284 0-15 6.716-15 15s6.716 15 15 15h224.934c8.284 0 15-6.716 15-15s-6.716-15-15-15z"></path><path d="m271 175.667v-16.067c0-8.284-6.716-15-15-15s-15 6.716-15 15v16.066c0 8.284 6.716 15 15 15 8.284.001 15-6.715 15-14.999z"></path><path d="m135.5 70.167h16.067c8.284 0 15-6.716 15-15s-6.716-15-15-15h-16.067c-8.284 0-15 6.716-15 15s6.716 15 15 15z"></path><path d="m360.434 70.167h16.066c8.284 0 15-6.716 15-15s-6.716-15-15-15h-16.066c-8.284 0-15 6.716-15 15s6.715 15 15 15z"></path><path d="m160.184 150.983c5.867 5.866 15.363 5.849 21.213 0l11.367-11.367c5.857-5.858 5.857-15.355 0-21.213-5.858-5.857-15.355-5.857-21.213 0l-11.367 11.367c-5.858 5.857-5.858 15.355 0 21.213z"></path><path d="m330.603 150.982c5.856 5.857 15.355 5.859 21.213 0 5.858-5.858 5.858-15.355 0-21.213l-11.367-11.367c-5.857-5.858-15.355-5.858-21.213 0s-5.858 15.355 0 21.213z"></path><circle cx="256" cy="55.167" r="55.167"></circle><path d="m201.463 283.466h109.075l-9.045-54.266h-90.985z"></path><path d="m187.417 367.733h137.166l-9.045-54.267h-119.076z"></path><path d="m166.049 313.466h-106.053l-27.133 54.267h124.141z"></path><path d="m340.952 283.466h96.052l-22.988-45.975c-2.54-5.082-7.734-8.292-13.416-8.292h-68.693z"></path><path d="m152.004 397.733h-134.141l-16.28 32.559c-2.325 4.649-2.076 10.172.657 14.594s7.561 7.114 12.76 7.114h127.959z"></path><path d="m173.372 452h165.257l-9.045-54.267h-147.167z"></path><path d="m510.416 430.292-16.279-32.558h-134.14l9.045 54.266h127.958c5.198 0 10.026-2.692 12.76-7.114 2.733-4.422 2.981-9.945.656-14.594z"></path><path d="m180.094 229.2h-68.694c-5.682 0-10.875 3.21-13.417 8.292l-22.987 45.975h96.053z"></path><path d="m354.997 367.733h124.14l-27.134-54.267h-106.051z"></path></g></svg>